<svg version="1.1" id="Layer_1" xmlns="http://www.w3.org/2000/svg" xmlns:xlink="http://www.w3.org/1999/xlink" x="0px" y="0px"
	 width="100%" viewBox="0 0 1000 1000" enable-background="new 0 0 1000 1000" xml:space="preserve">
<path fill="#000000" opacity="1.000000" stroke="none" 
	d="
M886.000000,1.000003 
	C924.256592,1.000000 962.513245,1.000000 1001.000000,1.000000 
	C1001.000000,35.353886 1001.000000,69.708282 1000.677856,104.757721 
	C997.761169,103.374657 995.166626,101.296562 992.364380,98.975235 
	C989.029297,95.960983 985.901917,93.189972 982.556885,90.160599 
	C976.464722,84.340714 970.677246,78.683296 964.686340,73.250229 
	C960.457764,69.415428 955.953308,65.884880 951.364380,61.975250 
	C948.029236,58.961014 944.901917,56.189999 941.556885,53.160564 
	C932.104675,44.315979 922.930481,35.663620 913.608276,27.173637 
	C909.415161,23.354753 904.926636,19.860168 900.364380,15.975210 
	C897.029297,12.960948 893.901917,10.189910 890.560974,7.165145 
	C888.898254,4.940947 887.449158,2.970476 886.000000,1.000003 
z"/>
<path fill="#FFFFFF" opacity="1.000000" stroke="none" 
	d="
M992.572083,99.218460 
	C995.166626,101.296562 997.761169,103.374657 1000.677856,105.226379 
	C1001.000000,403.633545 1001.000000,702.267090 1001.000000,1000.950317 
	C667.736755,1000.950317 334.473541,1000.950317 1.105156,1000.950317 
	C1.105156,667.773804 1.105156,334.547516 1.105156,1.000000 
	C295.693451,1.000000 590.387024,1.000000 885.540283,1.000003 
	C887.449158,2.970476 888.898254,4.940947 890.342102,7.322059 
	C890.199646,7.848468 890.062439,7.964237 889.571533,8.041327 
	C885.332581,6.365863 883.761475,1.804008 878.154724,1.808208 
	C587.667175,2.025826 297.179504,2.000001 6.691841,2.000001 
	C5.242526,2.000001 3.793212,2.000001 2.210520,2.000001 
	C2.210520,334.837311 2.210520,667.232422 2.210520,999.800049 
	C334.816162,999.800049 667.211304,999.800049 1000.000000,999.800049 
	C1000.000000,997.651367 1000.000000,995.695435 1000.000000,993.739563 
	C1000.000000,703.251892 999.973328,412.764221 1000.128540,122.276611 
	C1000.133240,113.526878 999.939148,105.542686 992.095764,99.871201 
	C992.368164,99.514427 992.470093,99.366447 992.572083,99.218460 
z"/>
<path fill="#FFFFFF" opacity="1.000000" stroke="none" 
	d="
M900.572083,16.218445 
	C904.926636,19.860168 909.415161,23.354753 913.608276,27.173637 
	C922.930481,35.663620 932.104675,44.315979 941.338013,53.317432 
	C941.199646,53.848480 941.062439,53.964241 940.575623,54.041481 
	C926.792419,41.695293 913.358887,29.387630 900.095825,16.871185 
	C900.368225,16.514421 900.470154,16.366438 900.572083,16.218445 
z"/>
<path fill="#FFFFFF" opacity="1.000000" stroke="none" 
	d="
M951.572083,62.218468 
	C955.953308,65.884880 960.457764,69.415428 964.686340,73.250229 
	C970.677246,78.683296 976.464722,84.340714 982.338013,90.317474 
	C982.199646,90.848480 982.062439,90.964233 981.575562,91.041504 
	C971.125671,81.695351 961.025452,72.387688 951.095764,62.871216 
	C951.368164,62.514423 951.470093,62.366444 951.572083,62.218468 
z"/>
<path fill="#FFFFFF" opacity="1.000000" stroke="none" 
	d="
M890.555664,7.575787 
	C893.901917,10.189910 897.029297,12.960948 900.364380,15.975222 
	C900.470154,16.366438 900.368225,16.514421 899.746460,16.832722 
	C896.126160,14.028694 893.025757,11.054352 889.925293,8.080008 
	C890.062439,7.964237 890.199646,7.848468 890.555664,7.575787 
z"/>
<path fill="#FFFFFF" opacity="1.000000" stroke="none" 
	d="
M941.555664,53.575848 
	C944.901917,56.189999 948.029236,58.961014 951.364380,61.975243 
	C951.470093,62.366444 951.368164,62.514423 950.746460,62.832710 
	C947.126221,60.028667 944.025757,57.054325 940.925293,54.079994 
	C941.062439,53.964241 941.199646,53.848480 941.555664,53.575848 
z"/>
<path fill="#FFFFFF" opacity="1.000000" stroke="none" 
	d="
M982.555664,90.575844 
	C985.901917,93.189972 989.029297,95.960983 992.364380,98.975227 
	C992.470093,99.366447 992.368164,99.514427 991.746460,99.832718 
	C988.126160,97.028679 985.025757,94.054337 981.925293,91.079994 
	C982.062439,90.964233 982.199646,90.848480 982.555664,90.575844 
z"/>
<path fill="#000000" opacity="1.000000" stroke="none" 
	d="
M981.575562,91.041504 
	C985.025757,94.054337 988.126160,97.028679 991.575928,100.041512 
	C999.939148,105.542686 1000.133240,113.526878 1000.128540,122.276611 
	C999.973328,412.764221 1000.000000,703.251892 1000.000000,993.739563 
	C1000.000000,995.695435 1000.000000,997.651367 1000.000000,999.800049 
	C667.211304,999.800049 334.816162,999.800049 2.210520,999.800049 
	C2.210520,667.232422 2.210520,334.837311 2.210520,2.000001 
	C3.793212,2.000001 5.242526,2.000001 6.691841,2.000001 
	C297.179504,2.000001 587.667175,2.025826 878.154724,1.808208 
	C883.761475,1.804008 885.332581,6.365863 889.571533,8.041328 
	C893.025757,11.054352 896.126160,14.028694 899.575989,17.041502 
	C913.358887,29.387630 926.792419,41.695293 940.575623,54.041473 
	C944.025757,57.054325 947.126221,60.028667 950.575928,63.041519 
	C961.025452,72.387688 971.125671,81.695351 981.575562,91.041504 
z"/>
</svg>